<svg xmlns="http://www.w3.org/2000/svg" xmlns:xlink="http://www.w3.org/1999/xlink" width="48" height="48" id="link"><defs><linearGradient id="b" x1="1056.035" x2="1031.176" y1="544.13" y2="517.701" gradientTransform="matrix(2.06248 0 0 2.0462 -1902.792 302.93)" gradientUnits="userSpaceOnUse" xlink:href="#a"></linearGradient><linearGradient id="a"><stop offset="0" stop-color="#5a5a5a"></stop><stop offset="1" stop-color="#656e85"></stop></linearGradient></defs><g transform="matrix(.74563 0 0 .75157 -162.952 -1020.692)"><rect width="64.375" height="63.866" x="218.542" y="1358.082" fill="url(#b)" rx="13.605" ry="13.497"></rect><path style="line-height:normal;-inkscape-font-specification:Sans;text-indent:0;text-align:start;text-decoration-line:none;text-transform:none;block-progression:tb;marker:none" fill="#fff" d="M250.059 1373.009v2.994h1.34v-2.994zm-5.91 1.289-1.173.582 1.257 2.703 1.215-.54zm20.704 1.621c2.066-.056 4.124.98 5.239 2.911a5.825 5.825 0 0 1-2.138 7.983l-7.837 4.49c-1.706.986-3.587.794-5.239.043l1.802-1.04c.904.122 1.865.04 2.725-.457l7.585-4.449c.014-.01.03-.035.042-.042 1.994-1.18 2.739-3.712 1.593-5.696-1.153-1.998-3.76-2.624-5.784-1.456l-7.627 4.408c-.867.5-1.458 1.268-1.803 2.12l-1.131.666-.629.374c.164-1.82.965-3.582 2.682-4.574l7.754-4.49a5.836 5.836 0 0 1 2.766-.79zm-26.026 1.955-.923.956 2.18 2.079.922-.998zm26.361 1.08c.933.046 1.814.522 2.305 1.373.786 1.36.287 3.09-1.131 3.908l-7.46 4.366c.698-1.005.847-2.305.21-3.41a3.273 3.273 0 0 0-2.893-1.62l7.293-4.2a3.068 3.068 0 0 1 1.676-.416zm-30.72 5.988-.335 1.29 2.891.79.378-1.29zm21.542 0a2.1 2.1 0 0 1 .754.042c.485.116.914.381 1.174.832.52.901.2 2.086-.797 2.66l-.88.541s-4.147 2.377-5.91 3.368l-3.142 1.83c-.262.226-.612.37-.922.54-.996.575-2.162.278-2.683-.623-.52-.902-.2-2.087.797-2.661.264-.24.632-.345.922-.5l2.053-1.205 1.09-.665a.692.692 0 0 0 .126-.083l2.347-1.33.167-.084 3.144-1.788a.503.503 0 0 0 .168-.125l.837-.499c.25-.144.503-.216.755-.25zm-11.945 2.994c.928-.025 1.85.265 2.683.665l-.252.125-1.676.998c-.912-.128-1.898 0-2.766.499l-7.586 4.407c-2.024 1.169-2.788 3.7-1.635 5.697 1.153 1.997 3.76 2.665 5.784 1.497l7.628-4.408c.855-.493 1.455-1.281 1.802-2.12.005-.012-.005-.03 0-.042l.838-.458.964-.54c-.162 1.822-1.005 3.54-2.724 4.532l-7.754 4.532c-2.808 1.621-6.383.646-8.005-2.162-1.62-2.808-.67-6.32 2.138-7.942l7.837-4.49c.878-.507 1.786-.765 2.724-.79zm-1.467 3.493c-.667 1-.797 2.276-.167 3.368.617 1.068 1.795 1.638 2.975 1.58l-7.46 4.282c-1.418.82-3.195.363-3.981-.998-.786-1.36-.287-3.09 1.131-3.908zm21.836 1.58-.377 1.247 2.933.79.336-1.289zm-3.06 6.112-.922.998 2.18 2.037.922-.998zm-4.149 3.326-1.215.54 1.3 2.703 1.173-.54zm-7.166 1.58v2.994h1.34v-2.994z" color="#000" font-family="Sans" font-weight="400" overflow="visible"></path></g></svg>